# Blender 3.4.1
# www.blender.org
mtllib Frame.mtl
o Cube
v 32.000000 0.500000 32.000000
v 32.000000 -0.500000 32.000000
v 32.000000 0.500000 33.000000
v 32.000000 -0.500000 33.000000
v -32.000000 0.500000 32.000000
v -32.000000 -0.500000 32.000000
v -32.000000 0.500000 33.000000
v -32.000000 -0.500000 33.000000
vn -0.0000 1.0000 -0.0000
vn -0.0000 -0.0000 1.0000
vn -1.0000 -0.0000 -0.0000
vn -0.0000 -1.0000 -0.0000
vn 1.0000 -0.0000 -0.0000
vn -0.0000 -0.0000 -1.0000
vt 0.625000 0.500000
vt 0.375000 0.500000
vt 0.625000 0.750000
vt 0.375000 0.750000
vt 0.875000 0.500000
vt 0.625000 0.250000
vt 0.125000 0.500000
vt 0.375000 0.250000
vt 0.875000 0.750000
vt 0.625000 1.000000
vt 0.625000 0.000000
vt 0.375000 0.000000
vt 0.375000 1.000000
vt 0.125000 0.750000
s 0
usemtl Material
f 5/5/1 3/3/1 1/1/1
f 3/3/2 8/13/2 4/4/2
f 7/11/3 6/8/3 8/12/3
f 2/2/4 8/14/4 6/7/4
f 1/1/5 4/4/5 2/2/5
f 5/6/6 2/2/6 6/8/6
f 5/5/1 7/9/1 3/3/1
f 3/3/2 7/10/2 8/13/2
f 7/11/3 5/6/3 6/8/3
f 2/2/4 4/4/4 8/14/4
f 1/1/5 3/3/5 4/4/5
f 5/6/6 1/1/6 2/2/6
o Cube.001
v 32.000000 0.500000 -33.000000
v 32.000000 -0.500000 -33.000000
v 32.000000 0.500000 -32.000000
v 32.000000 -0.500000 -32.000000
v -32.000000 0.500000 -33.000000
v -32.000000 -0.500000 -33.000000
v -32.000000 0.500000 -32.000000
v -32.000000 -0.500000 -32.000000
vn -0.0000 1.0000 -0.0000
vn -0.0000 -0.0000 1.0000
vn -1.0000 -0.0000 -0.0000
vn -0.0000 -1.0000 -0.0000
vn 1.0000 -0.0000 -0.0000
vn -0.0000 -0.0000 -1.0000
vt 0.625000 0.500000
vt 0.375000 0.500000
vt 0.625000 0.750000
vt 0.375000 0.750000
vt 0.875000 0.500000
vt 0.625000 0.250000
vt 0.125000 0.500000
vt 0.375000 0.250000
vt 0.875000 0.750000
vt 0.625000 1.000000
vt 0.625000 0.000000
vt 0.375000 0.000000
vt 0.375000 1.000000
vt 0.125000 0.750000
s 0
usemtl Material.001
f 13/19/7 11/17/7 9/15/7
f 11/17/8 16/27/8 12/18/8
f 15/25/9 14/22/9 16/26/9
f 10/16/10 16/28/10 14/21/10
f 9/15/11 12/18/11 10/16/11
f 13/20/12 10/16/12 14/22/12
f 13/19/7 15/23/7 11/17/7
f 11/17/8 15/24/8 16/27/8
f 15/25/9 13/20/9 14/22/9
f 10/16/10 12/18/10 16/28/10
f 9/15/11 11/17/11 12/18/11
f 13/20/12 9/15/12 10/16/12
o Cube.002
v -33.000000 0.500000 -33.000000
v -33.000000 -0.500000 -33.000000
v -32.000000 0.500000 -33.000000
v -32.000000 -0.500000 -33.000000
v -33.000000 0.500000 33.000000
v -33.000000 -0.500000 33.000000
v -31.999998 0.500000 33.000000
v -31.999998 -0.500000 33.000000
vn -0.0000 1.0000 -0.0000
vn 1.0000 -0.0000 -0.0000
vn -0.0000 -0.0000 1.0000
vn -0.0000 -1.0000 -0.0000
vn -0.0000 -0.0000 -1.0000
vn -1.0000 -0.0000 -0.0000
vt 0.625000 0.500000
vt 0.375000 0.500000
vt 0.625000 0.750000
vt 0.375000 0.750000
vt 0.875000 0.500000
vt 0.625000 0.250000
vt 0.125000 0.500000
vt 0.375000 0.250000
vt 0.875000 0.750000
vt 0.625000 1.000000
vt 0.625000 0.000000
vt 0.375000 0.000000
vt 0.375000 1.000000
vt 0.125000 0.750000
s 0
usemtl Material.002
f 21/33/13 19/31/13 17/29/13
f 19/31/14 24/41/14 20/32/14
f 23/39/15 22/36/15 24/40/15
f 18/30/16 24/42/16 22/35/16
f 17/29/17 20/32/17 18/30/17
f 21/34/18 18/30/18 22/36/18
f 21/33/13 23/37/13 19/31/13
f 19/31/14 23/38/14 24/41/14
f 23/39/15 21/34/15 22/36/15
f 18/30/16 20/32/16 24/42/16
f 17/29/17 19/31/17 20/32/17
f 21/34/18 17/29/18 18/30/18
o Cube.003
v 31.999998 0.500000 -33.000000
v 31.999998 -0.500000 -33.000000
v 33.000000 0.500000 -33.000000
v 33.000000 -0.500000 -33.000000
v 32.000000 0.500000 33.000000
v 32.000000 -0.500000 33.000000
v 33.000000 0.500000 33.000000
v 33.000000 -0.500000 33.000000
vn -0.0000 1.0000 -0.0000
vn 1.0000 -0.0000 -0.0000
vn -0.0000 -0.0000 1.0000
vn -0.0000 -1.0000 -0.0000
vn -0.0000 -0.0000 -1.0000
vn -1.0000 -0.0000 -0.0000
vt 0.625000 0.500000
vt 0.375000 0.500000
vt 0.625000 0.750000
vt 0.375000 0.750000
vt 0.875000 0.500000
vt 0.625000 0.250000
vt 0.125000 0.500000
vt 0.375000 0.250000
vt 0.875000 0.750000
vt 0.625000 1.000000
vt 0.625000 0.000000
vt 0.375000 0.000000
vt 0.375000 1.000000
vt 0.125000 0.750000
s 0
usemtl Material.003
f 29/47/19 27/45/19 25/43/19
f 27/45/20 32/55/20 28/46/20
f 31/53/21 30/50/21 32/54/21
f 26/44/22 32/56/22 30/49/22
f 25/43/23 28/46/23 26/44/23
f 29/48/24 26/44/24 30/50/24
f 29/47/19 31/51/19 27/45/19
f 27/45/20 31/52/20 32/55/20
f 31/53/21 29/48/21 30/50/21
f 26/44/22 28/46/22 32/56/22
f 25/43/23 27/45/23 28/46/23
f 29/48/24 25/43/24 26/44/24
o Cube.004
v 31.999998 64.499741 -33.000000
v 31.999998 63.499741 -33.000000
v 33.000000 64.499741 -33.000000
v 33.000000 63.499741 -33.000000
v 32.000000 64.499741 33.000000
v 32.000000 63.499741 33.000000
v 33.000000 64.499741 33.000000
v 33.000000 63.499741 33.000000
vn -0.0000 1.0000 -0.0000
vn 1.0000 -0.0000 -0.0000
vn -0.0000 -0.0000 1.0000
vn -0.0000 -1.0000 -0.0000
vn -0.0000 -0.0000 -1.0000
vn -1.0000 -0.0000 -0.0000
vt 0.625000 0.500000
vt 0.375000 0.500000
vt 0.625000 0.750000
vt 0.375000 0.750000
vt 0.875000 0.500000
vt 0.625000 0.250000
vt 0.125000 0.500000
vt 0.375000 0.250000
vt 0.875000 0.750000
vt 0.625000 1.000000
vt 0.625000 0.000000
vt 0.375000 0.000000
vt 0.375000 1.000000
vt 0.125000 0.750000
s 0
usemtl Material.004
f 37/61/25 35/59/25 33/57/25
f 35/59/26 40/69/26 36/60/26
f 39/67/27 38/64/27 40/68/27
f 34/58/28 40/70/28 38/63/28
f 33/57/29 36/60/29 34/58/29
f 37/62/30 34/58/30 38/64/30
f 37/61/25 39/65/25 35/59/25
f 35/59/26 39/66/26 40/69/26
f 39/67/27 37/62/27 38/64/27
f 34/58/28 36/60/28 40/70/28
f 33/57/29 35/59/29 36/60/29
f 37/62/30 33/57/30 34/58/30
o Cube.005
v -33.000000 64.499741 -33.000000
v -33.000000 63.499741 -33.000000
v -32.000000 64.499741 -33.000000
v -32.000000 63.499741 -33.000000
v -33.000000 64.499741 33.000000
v -33.000000 63.499741 33.000000
v -31.999998 64.499741 33.000000
v -31.999998 63.499741 33.000000
vn -0.0000 1.0000 -0.0000
vn 1.0000 -0.0000 -0.0000
vn -0.0000 -0.0000 1.0000
vn -0.0000 -1.0000 -0.0000
vn -0.0000 -0.0000 -1.0000
vn -1.0000 -0.0000 -0.0000
vt 0.625000 0.500000
vt 0.375000 0.500000
vt 0.625000 0.750000
vt 0.375000 0.750000
vt 0.875000 0.500000
vt 0.625000 0.250000
vt 0.125000 0.500000
vt 0.375000 0.250000
vt 0.875000 0.750000
vt 0.625000 1.000000
vt 0.625000 0.000000
vt 0.375000 0.000000
vt 0.375000 1.000000
vt 0.125000 0.750000
s 0
usemtl Material.005
f 45/75/31 43/73/31 41/71/31
f 43/73/32 48/83/32 44/74/32
f 47/81/33 46/78/33 48/82/33
f 42/72/34 48/84/34 46/77/34
f 41/71/35 44/74/35 42/72/35
f 45/76/36 42/72/36 46/78/36
f 45/75/31 47/79/31 43/73/31
f 43/73/32 47/80/32 48/83/32
f 47/81/33 45/76/33 46/78/33
f 42/72/34 44/74/34 48/84/34
f 41/71/35 43/73/35 44/74/35
f 45/76/36 41/71/36 42/72/36
o Cube.006
v 32.000000 64.499741 -33.000000
v 32.000000 63.499741 -33.000000
v 32.000000 64.499741 -32.000000
v 32.000000 63.499741 -32.000000
v -32.000000 64.499741 -33.000000
v -32.000000 63.499741 -33.000000
v -32.000000 64.499741 -32.000000
v -32.000000 63.499741 -32.000000
vn -0.0000 1.0000 -0.0000
vn -0.0000 -0.0000 1.0000
vn -1.0000 -0.0000 -0.0000
vn -0.0000 -1.0000 -0.0000
vn 1.0000 -0.0000 -0.0000
vn -0.0000 -0.0000 -1.0000
vt 0.625000 0.500000
vt 0.375000 0.500000
vt 0.625000 0.750000
vt 0.375000 0.750000
vt 0.875000 0.500000
vt 0.625000 0.250000
vt 0.125000 0.500000
vt 0.375000 0.250000
vt 0.875000 0.750000
vt 0.625000 1.000000
vt 0.625000 0.000000
vt 0.375000 0.000000
vt 0.375000 1.000000
vt 0.125000 0.750000
s 0
usemtl Material.006
f 53/89/37 51/87/37 49/85/37
f 51/87/38 56/97/38 52/88/38
f 55/95/39 54/92/39 56/96/39
f 50/86/40 56/98/40 54/91/40
f 49/85/41 52/88/41 50/86/41
f 53/90/42 50/86/42 54/92/42
f 53/89/37 55/93/37 51/87/37
f 51/87/38 55/94/38 56/97/38
f 55/95/39 53/90/39 54/92/39
f 50/86/40 52/88/40 56/98/40
f 49/85/41 51/87/41 52/88/41
f 53/90/42 49/85/42 50/86/42
o Cube.007
v 32.000000 64.499741 32.000000
v 32.000000 63.499741 32.000000
v 32.000000 64.499741 33.000000
v 32.000000 63.499741 33.000000
v -32.000000 64.499741 32.000000
v -32.000000 63.499741 32.000000
v -32.000000 64.499741 33.000000
v -32.000000 63.499741 33.000000
vn -0.0000 1.0000 -0.0000
vn -0.0000 -0.0000 1.0000
vn -1.0000 -0.0000 -0.0000
vn -0.0000 -1.0000 -0.0000
vn 1.0000 -0.0000 -0.0000
vn -0.0000 -0.0000 -1.0000
vt 0.625000 0.500000
vt 0.375000 0.500000
vt 0.625000 0.750000
vt 0.375000 0.750000
vt 0.875000 0.500000
vt 0.625000 0.250000
vt 0.125000 0.500000
vt 0.375000 0.250000
vt 0.875000 0.750000
vt 0.625000 1.000000
vt 0.625000 0.000000
vt 0.375000 0.000000
vt 0.375000 1.000000
vt 0.125000 0.750000
s 0
usemtl Material.007
f 61/103/43 59/101/43 57/99/43
f 59/101/44 64/111/44 60/102/44
f 63/109/45 62/106/45 64/110/45
f 58/100/46 64/112/46 62/105/46
f 57/99/47 60/102/47 58/100/47
f 61/104/48 58/100/48 62/106/48
f 61/103/43 63/107/43 59/101/43
f 59/101/44 63/108/44 64/111/44
f 63/109/45 61/104/45 62/106/45
f 58/100/46 60/102/46 64/112/46
f 57/99/47 59/101/47 60/102/47
f 61/104/48 57/99/48 58/100/48
o Cube.008
v -33.000000 64.500000 32.000000
v -32.000000 64.500000 32.000000
v -33.000000 64.500000 33.000000
v -32.000000 64.500000 33.000000
v -33.000000 0.500000 32.000000
v -31.999998 0.500000 32.000000
v -33.000000 0.500000 33.000000
v -31.999998 0.500000 33.000000
vn -1.0000 -0.0000 -0.0000
vn -0.0000 -0.0000 1.0000
vn -0.0000 -1.0000 -0.0000
vn 1.0000 -0.0000 -0.0000
vn -0.0000 1.0000 -0.0000
vn -0.0000 -0.0000 -1.0000
vt 0.625000 0.500000
vt 0.375000 0.500000
vt 0.625000 0.750000
vt 0.375000 0.750000
vt 0.875000 0.500000
vt 0.625000 0.250000
vt 0.125000 0.500000
vt 0.375000 0.250000
vt 0.875000 0.750000
vt 0.625000 1.000000
vt 0.625000 0.000000
vt 0.375000 0.000000
vt 0.375000 1.000000
vt 0.125000 0.750000
s 0
usemtl Material.008
f 69/117/49 67/115/49 65/113/49
f 67/115/50 72/125/50 68/116/50
f 71/123/51 70/120/51 72/124/51
f 66/114/52 72/126/52 70/119/52
f 65/113/53 68/116/53 66/114/53
f 69/118/54 66/114/54 70/120/54
f 69/117/49 71/121/49 67/115/49
f 67/115/50 71/122/50 72/125/50
f 71/123/51 69/118/51 70/120/51
f 66/114/52 68/116/52 72/126/52
f 65/113/53 67/115/53 68/116/53
f 69/118/54 65/113/54 66/114/54
o Cube.009
v 31.999998 64.500000 32.000000
v 33.000000 64.500000 32.000000
v 31.999998 64.500000 33.000000
v 33.000000 64.500000 33.000000
v 32.000000 0.500000 32.000000
v 33.000000 0.500000 32.000000
v 32.000000 0.500000 33.000000
v 33.000000 0.500000 33.000000
vn -1.0000 -0.0000 -0.0000
vn -0.0000 -0.0000 1.0000
vn -0.0000 -1.0000 -0.0000
vn 1.0000 -0.0000 -0.0000
vn -0.0000 1.0000 -0.0000
vn -0.0000 -0.0000 -1.0000
vt 0.625000 0.500000
vt 0.375000 0.500000
vt 0.625000 0.750000
vt 0.375000 0.750000
vt 0.875000 0.500000
vt 0.625000 0.250000
vt 0.125000 0.500000
vt 0.375000 0.250000
vt 0.875000 0.750000
vt 0.625000 1.000000
vt 0.625000 0.000000
vt 0.375000 0.000000
vt 0.375000 1.000000
vt 0.125000 0.750000
s 0
usemtl Material.009
f 77/131/55 75/129/55 73/127/55
f 75/129/56 80/139/56 76/130/56
f 79/137/57 78/134/57 80/138/57
f 74/128/58 80/140/58 78/133/58
f 73/127/59 76/130/59 74/128/59
f 77/132/60 74/128/60 78/134/60
f 77/131/55 79/135/55 75/129/55
f 75/129/56 79/136/56 80/139/56
f 79/137/57 77/132/57 78/134/57
f 74/128/58 76/130/58 80/140/58
f 73/127/59 75/129/59 76/130/59
f 77/132/60 73/127/60 74/128/60
o Cube.010
v 31.999998 64.500000 -33.000000
v 33.000000 64.500000 -33.000000
v 31.999998 64.500000 -32.000000
v 33.000000 64.500000 -32.000000
v 32.000000 0.500000 -33.000000
v 33.000000 0.500000 -33.000000
v 32.000000 0.500000 -32.000000
v 33.000000 0.500000 -32.000000
vn -1.0000 -0.0000 -0.0000
vn -0.0000 -0.0000 1.0000
vn -0.0000 -1.0000 -0.0000
vn 1.0000 -0.0000 -0.0000
vn -0.0000 1.0000 -0.0000
vn -0.0000 -0.0000 -1.0000
vt 0.625000 0.500000
vt 0.375000 0.500000
vt 0.625000 0.750000
vt 0.375000 0.750000
vt 0.875000 0.500000
vt 0.625000 0.250000
vt 0.125000 0.500000
vt 0.375000 0.250000
vt 0.875000 0.750000
vt 0.625000 1.000000
vt 0.625000 0.000000
vt 0.375000 0.000000
vt 0.375000 1.000000
vt 0.125000 0.750000
s 0
usemtl Material.010
f 85/145/61 83/143/61 81/141/61
f 83/143/62 88/153/62 84/144/62
f 87/151/63 86/148/63 88/152/63
f 82/142/64 88/154/64 86/147/64
f 81/141/65 84/144/65 82/142/65
f 85/146/66 82/142/66 86/148/66
f 85/145/61 87/149/61 83/143/61
f 83/143/62 87/150/62 88/153/62
f 87/151/63 85/146/63 86/148/63
f 82/142/64 84/144/64 88/154/64
f 81/141/65 83/143/65 84/144/65
f 85/146/66 81/141/66 82/142/66
o Cube.011
v -33.000000 64.500000 -33.000000
v -32.000000 64.500000 -33.000000
v -33.000000 64.500000 -32.000000
v -32.000000 64.500000 -32.000000
v -33.000000 0.500000 -33.000000
v -31.999998 0.500000 -33.000000
v -33.000000 0.500000 -32.000000
v -31.999998 0.500000 -32.000000
vn -1.0000 -0.0000 -0.0000
vn -0.0000 -0.0000 1.0000
vn -0.0000 -1.0000 -0.0000
vn 1.0000 -0.0000 -0.0000
vn -0.0000 1.0000 -0.0000
vn -0.0000 -0.0000 -1.0000
vt 0.625000 0.500000
vt 0.375000 0.500000
vt 0.625000 0.750000
vt 0.375000 0.750000
vt 0.875000 0.500000
vt 0.625000 0.250000
vt 0.125000 0.500000
vt 0.375000 0.250000
vt 0.875000 0.750000
vt 0.625000 1.000000
vt 0.625000 0.000000
vt 0.375000 0.000000
vt 0.375000 1.000000
vt 0.125000 0.750000
s 0
usemtl Material.011
f 93/159/67 91/157/67 89/155/67
f 91/157/68 96/167/68 92/158/68
f 95/165/69 94/162/69 96/166/69
f 90/156/70 96/168/70 94/161/70
f 89/155/71 92/158/71 90/156/71
f 93/160/72 90/156/72 94/162/72
f 93/159/67 95/163/67 91/157/67
f 91/157/68 95/164/68 96/167/68
f 95/165/69 93/160/69 94/162/69
f 90/156/70 92/158/70 96/168/70
f 89/155/71 91/157/71 92/158/71
f 93/160/72 89/155/72 90/156/72
