# Blender v2.93.3 OBJ File: ''
# www.blender.org
mtllib Pyramid.mtl
o Cube_Cube.002
v 0.025773 -0.009362 -9.976118
v -4.997819 10.037824 -4.952525
v 0.025773 -0.009362 0.071068
v -10.021414 -0.009362 0.071068
v -10.021414 -0.009362 -9.976118
vt 0.375000 0.000000
vt 0.625000 0.250000
vt 0.375000 0.250000
vt 0.625000 0.500000
vt 0.375000 0.500000
vt 0.625000 0.750000
vt 0.375000 0.750000
vt 0.625000 1.000000
vt 0.375000 1.000000
vt 0.125000 0.750000
vt 0.125000 0.500000
vn 0.8944 0.4472 0.0000
vn 0.0000 0.4472 0.8944
vn -0.8944 0.4472 0.0000
vn 0.0000 0.4472 -0.8944
vn -0.0000 -1.0000 0.0000
usemtl None
s 1
f 1/1/1 2/2/1 3/3/1
f 3/3/2 2/4/2 4/5/2
f 4/5/3 2/6/3 5/7/3
f 5/7/4 2/8/4 1/9/4
f 4/5/5 1/10/5 3/11/5
f 4/5/5 5/7/5 1/10/5
